<?xml version="1.0" encoding="utf-8"?>
<!-- Generator: Adobe Illustrator 26.0.1, SVG Export Plug-In . SVG Version: 6.00 Build 0)  -->
<svg version="1.1" id="Layer_1" xmlns="http://www.w3.org/2000/svg" xmlns:xlink="http://www.w3.org/1999/xlink" x="0px" y="0px"
	 viewBox="0 0 1080 1080" style="enable-background:new 0 0 1080 1080;" xml:space="preserve">
<style type="text/css">
	.st0{fill:#FFFFFF;}
</style>
<g>
	<path class="st0" d="M1079.88,229.1c0.01-0.8,0.12-1.58,0.12-2.4c0-67.67-55.84-122.52-124.73-122.52
		c-68.88,0-124.73,54.85-124.73,122.52v122.53h-20.86H414.31H306.96c0,0-105.34,357.46,402.18,357.46
		c284.07,0,374.61-190.08,370.74-357.46V229.1z M350.66,496.6c-13.04-40.8-12.1-80.56-9.02-106.44h72.67H459L350.66,496.6z
		 M688.97,515c-32.21,0-58.32-25.66-58.32-57.3c0-31.64,26.11-57.3,58.32-57.3s58.32,25.66,58.32,57.3
		C747.29,489.34,721.17,515,688.97,515z"/>
	<path class="st0" d="M640.23,329.69H807v-81.16c0-0.26,0.04-0.53,0.04-0.79c0-45.26-37.34-81.96-83.42-81.96
		c-46.07,0-83.41,36.7-83.41,81.96c0,0.26,0.04,0.53,0.04,0.79V329.69z"/>
	<path class="st0" d="M384.99,679.6c-110.3-47.48-194-84.68-160.91-177.73S81.08,382.51,123.32,641.89
		c0,0-123.32-202.96-123.32,80.11c0,284.17,1079.88,433.01,1079.88-121.66C1079.88,600.35,856.62,882.61,384.99,679.6z"/>
</g>
</svg>
