<?xml version="1.0" encoding="utf-8"?>
<!-- Generator: Adobe Illustrator 25.4.1, SVG Export Plug-In . SVG Version: 6.00 Build 0)  -->
<svg version="1.1" id="Layer_1" xmlns="http://www.w3.org/2000/svg" xmlns:xlink="http://www.w3.org/1999/xlink" x="0px" y="0px"
	 viewBox="0 0 864 864" style="enable-background:new 0 0 864 864;" xml:space="preserve">
<style type="text/css">
	.st0{display:none;}
	.st1{display:inline;fill:#36363B;}
	.st2{fill:#FFFFFF;}
</style>
<g id="Layer_2_00000076588587579584112690000005018625796474227135_" class="st0">
	<rect class="st1" width="864" height="864"/>
</g>
<g>
	<path class="st2" d="M360,360c0-39.76-32.24-72-72-72H144H72c0,0,72,0,72,72v432c0,0,0,72,72,72s144,0,144,0s72,0,72-72h-72V360z"
		/>
	<path class="st2" d="M720,792V360c0-39.76-32.24-72-72-72H504h-72c0,0,72,0,72,72v432c0,0,0,72,72,72s144,0,144,0s72,0,72-72H720z"
		/>
	<path class="st2" d="M216,216c144,0,144-144,144-144s-0.01,0-72,0h-72C72,72,72,216,72,216c13.5,0,36,0,72,0
		C162.72,216,186.29,216,216,216z"/>
</g>
</svg>
