<?xml version="1.0" encoding="utf-8"?>
<!-- Generator: Adobe Illustrator 26.0.0, SVG Export Plug-In . SVG Version: 6.00 Build 0)  -->
<svg version="1.1" id="Layer_1" xmlns="http://www.w3.org/2000/svg" xmlns:xlink="http://www.w3.org/1999/xlink" x="0px" y="0px"
	 viewBox="0 0 500 500" style="enable-background:new 0 0 500 500;" xml:space="preserve">
<style type="text/css">
	.st0{fill:#606060;}
	.st1{fill:#BFBFBF;}
	.st2{fill:#202020;}
	.st3{fill:#9F9F9F;}
	.st4{fill:#404040;}
	.st5{fill:#808080;}
	.st6{fill:#DFDFDF;}
	.st7{fill:#D83535;}
</style>
<g>
	<g>
		<g>
			<path class="st7" d="M250,250l-64.7,241.48c-22.14-5.93-40.45-13.52-60.3-24.98L250,250z"/>
		</g>
	</g>
	<g>
		<g>
			<path class="st7" d="M250,250v250c-22.92,0-42.57-2.59-64.7-8.52L250,250z"/>
		</g>
	</g>
	<g>
		<g>
			<path class="st7" d="M250,250l64.7,241.48c-22.14,5.93-41.78,8.52-64.7,8.52V250z"/>
		</g>
	</g>
	<g>
		<g>
			<path class="st7" d="M250,250l125,216.51c-19.85,11.46-38.16,19.04-60.3,24.98L250,250z"/>
		</g>
	</g>
	<g>
		<g>
			<path class="st7" d="M250,250l176.78,176.78c-16.21,16.21-31.93,28.27-51.78,39.73L250,250z"/>
		</g>
	</g>
	<g>
		<g>
			<path class="st7" d="M250,250l216.51,125c-11.46,19.85-23.52,35.57-39.73,51.78L250,250z"/>
		</g>
	</g>
	<g>
		<g>
			<path class="st7" d="M250,250l241.48,64.7c-5.93,22.14-13.52,40.45-24.98,60.3L250,250z"/>
		</g>
	</g>
	<g>
		<g>
			<path class="st7" d="M250,250h250c0,22.92-2.59,42.57-8.52,64.7L250,250z"/>
		</g>
	</g>
	<g>
		<g>
			<path class="st7" d="M250,250l241.48-64.7c5.93,22.14,8.52,41.78,8.52,64.7H250z"/>
		</g>
	</g>
	<g>
		<g>
			<path class="st7" d="M250,250l216.51-125c11.46,19.85,19.04,38.16,24.98,60.3L250,250z"/>
		</g>
	</g>
	<g>
		<g>
			<path class="st7" d="M250,250L426.78,73.22c16.21,16.21,28.27,31.93,39.73,51.78L250,250z"/>
		</g>
	</g>
	<g>
		<g>
			<path class="st7" d="M250,250L375,33.49c19.85,11.46,35.57,23.52,51.78,39.73L250,250z"/>
		</g>
	</g>
	<g>
		<g>
			<path class="st7" d="M250,250L314.7,8.52c22.14,5.93,40.45,13.52,60.3,24.98L250,250z"/>
		</g>
	</g>
	<g>
		<g>
			<path class="st7" d="M250,250V0c22.92,0,42.57,2.59,64.7,8.52L250,250z"/>
		</g>
	</g>
</g>
</svg>
