<?xml version="1.0" encoding="utf-8"?>
<!-- Generator: Adobe Illustrator 26.0.0, SVG Export Plug-In . SVG Version: 6.00 Build 0)  -->
<svg version="1.1" id="Layer_1" xmlns="http://www.w3.org/2000/svg" xmlns:xlink="http://www.w3.org/1999/xlink" x="0px" y="0px"
	 viewBox="0 0 500 500" style="enable-background:new 0 0 500 500;" xml:space="preserve">
<style type="text/css">
	.st0{display:none;}
	.st1{display:inline;}
	.st2{fill:#D83535;}
</style>
<g class="st0">
	<g class="st1">
		<g>
			<path class="st2" d="M250,250L125,33.49C164.82,10.5,204.02,0,250,0V250z"/>
		</g>
	</g>
	<g class="st1">
		<g>
			<path class="st2" d="M250,250L33.49,125C56.48,85.18,85.18,56.48,125,33.49L250,250z"/>
		</g>
	</g>
	<g class="st1">
		<g>
			<path class="st2" d="M250,250H0c0-45.98,10.5-85.18,33.49-125L250,250z"/>
		</g>
	</g>
	<g class="st1">
		<g>
			<path class="st2" d="M250,250L33.49,375C10.5,335.18,0,295.98,0,250H250z"/>
		</g>
	</g>
	<g class="st1">
		<g>
			<path class="st2" d="M250,250L125,466.51C85.18,443.52,56.48,414.82,33.49,375L250,250z"/>
		</g>
	</g>
	<g class="st1">
		<g>
			<path class="st2" d="M250,250v250c-45.98,0-85.18-10.5-125-33.49L250,250z"/>
		</g>
	</g>
	<g class="st1">
		<g>
			<path class="st2" d="M250,250l125,216.51C335.18,489.5,295.98,500,250,500V250z"/>
		</g>
	</g>
	<g class="st1">
		<g>
			<path class="st2" d="M250,250l216.51,125c-22.99,39.82-51.69,68.52-91.51,91.51L250,250z"/>
		</g>
	</g>
	<g class="st1">
		<g>
			<path class="st2" d="M250,250h250c0,45.98-10.5,85.18-33.49,125L250,250z"/>
		</g>
	</g>
	<g class="st1">
		<g>
			<path class="st2" d="M250,250l216.51-125C489.5,164.82,500,204.02,500,250H250z"/>
		</g>
	</g>
	<g class="st1">
		<g>
			<path class="st2" d="M250,250L375,33.49c39.82,22.99,68.52,51.69,91.51,91.51L250,250z"/>
		</g>
	</g>
	<g class="st1">
		<g>
			<path class="st2" d="M250,250V0c45.98,0,85.18,10.5,125,33.49L250,250z"/>
		</g>
	</g>
</g>
<polygon class="st2" points="250,0 250,250 394.34,0 "/>
</svg>
